<svg xmlns="http://www.w3.org/2000/svg" width="45.859" height="45.859" viewBox="0 0 45.859 45.859">
    <defs>
        <style>
            .cls-1{fill:#f50514}
        </style>
    </defs>
    <g id="noun_auditorium_2561093" transform="translate(242 -375.9)">
        <path id="Path_514" d="M-230.433 438.1H-242v7.134h2.65V440.8h8.917z" class="cls-1" transform="translate(0 -30.506)"/>
        <path id="Rectangle_215" d="M0 0H11.363V2.701H0z" class="cls-1" transform="translate(-224.726 407.594)"/>
        <path id="Path_515" d="M-174.7 440.8h8.917v4.433h2.65V438.1H-174.7z" class="cls-1" transform="translate(-33.007 -30.506)"/>
        <path id="Path_516" d="M-229.4 459.034h2.7v-4.382h8.662v4.382h2.7V451.9H-229.4z" class="cls-1" transform="translate(-6.18 -37.274)"/>
        <path id="Path_517" d="M-192.2 459.034h2.7v-4.382h8.662v4.382h2.7V451.9H-192.2z" class="cls-1" transform="translate(-24.425 -37.274)"/>
        <path id="Path_518" d="M-242 375.9v23.235h2.65V378.6h40.56v20.535h2.65V375.9z" class="cls-1"/>
        <path id="Rectangle_216" d="M0 0H11.363V2.701H0z" class="cls-1" transform="translate(-234.204 401.123)"/>
        <path id="Rectangle_217" d="M0 0H11.363V2.701H0z" class="cls-1" transform="translate(-215.3 401.123)"/>
    </g>
</svg>
