<svg xmlns="http://www.w3.org/2000/svg" width="42.201" height="45.84" viewBox="0 0 42.201 45.84">
    <g>
        <path fill="#f50514" d="M15.117 3.4v5.312L7.1 46.486l12.395 2.754L28.2 27.5l8.706 21.74L49.3 46.486 41.726 8.712V3.4zm25.675 10.673a5.263 5.263 0 0 1-4.525-4.279h3.689zM17.085 5.367h22.674v2.46H17.085zm3.049 4.427A5.263 5.263 0 0 1 16 14.024l.885-4.23zm18 37.184L28.2 22.189l-9.935 24.789-8.853-1.968 6.2-28.97a7.23 7.23 0 0 0 6.542-6.246h5.066v6.886h1.967V9.794H34.3a7.181 7.181 0 0 0 6.886 6.246l5.8 28.921z" transform="translate(-7.1 -3.4)"/>
    </g>
</svg>
