<svg xmlns="http://www.w3.org/2000/svg" width="64.237" height="53.531" viewBox="0 0 64.237 53.531">
    <g>
        <path fill="#f50c1a" d="M25.963 25.191a2.677 2.677 0 0 1-2.227 1.192H13.03a2.677 2.677 0 0 0-2.677 2.677V58.5a2.677 2.677 0 0 0 2.677 2.677h48.178a2.677 2.677 0 0 0 2.676-2.677V29.059a2.677 2.677 0 0 0-2.677-2.677H50.5a2.677 2.677 0 0 1-2.227-1.192l-4.559-6.838H30.522zm35.245-4.161a8.03 8.03 0 0 1 8.03 8.03V58.5a8.03 8.03 0 0 1-8.03 8.03H13.03A8.03 8.03 0 0 1 5 58.5V29.059a8.03 8.03 0 0 1 8.03-8.03h9.27l4.559-6.838A2.677 2.677 0 0 1 29.089 13h16.059a2.677 2.677 0 0 1 2.227 1.192l4.559 6.838zm-24.089 34.8A13.383 13.383 0 1 1 50.5 42.442a13.383 13.383 0 0 1-13.381 13.383zm0-5.353a8.03 8.03 0 1 0-8.03-8.03 8.03 8.03 0 0 0 8.03 8.025z" transform="translate(-5 -13)"/>
    </g>
</svg>
