<svg xmlns="http://www.w3.org/2000/svg" width="67.765" height="54.72" viewBox="0 0 67.765 54.72">
    <path fill="#f50514" d="M60.7 31.424c-2.211-4.419-6.916-7.268-14.336-8.669a1.832 1.832 0 0 0-1.071-1.241 4.2 4.2 0 0 0-1.595-.447 4.117 4.117 0 0 0-1.641.2 2.007 2.007 0 0 0-1.1.8c-.536-.029-1.066-.044-1.583-.044-10.272 0-15.509 5.605-18.095 10.307a27.326 27.326 0 0 0-3.091 9.8c-1.369.574-4.151 1.647-6.622 2.6-1.73.667-3.365 1.3-4.212 1.64-2.017.818-3.467 2.238-3.786 3.708a2.708 2.708 0 0 0 .441 2.2 1.748 1.748 0 0 0 .457.759c.936.912 2.659.625 3.358.459l.073-.02a36.492 36.492 0 0 0 6.362-2.6 33.379 33.379 0 0 1 5.4 3.115c3.38 2.229 7.163 4.725 11.821 4.725a13.312 13.312 0 0 0 1.76-.118l.056-.01c10.1-1.842 15.473-6.88 16.964-8.484 1.213.063 2.524.1 3.795.1a33.394 33.394 0 0 0 4.189-.213c1.745-.23 2.6-.639 2.962-1.418l.095-.2.014-.226c.068-1.032.213-2.166.368-3.367.545-4.251 1.163-9.07-.983-13.356zm-16.373-9.01l-.135-.019a.58.58 0 0 1 .087-.063zm-1.438-.2l.014.014h-.024zM7.226 51.132a4.188 4.188 0 0 1-.586.091 3.354 3.354 0 0 1 2.944-1.267 6.783 6.783 0 0 1 .821.05c-1.511.603-2.935 1.051-3.179 1.126zm6.336-.521c.111.039.222.079.334.121a1.212 1.212 0 0 1-.334-.121zm19.324 5.574c-4.562.6-8.12-1.745-11.886-4.229-3.071-2.026-6.246-4.12-9.926-4.315-.061-.012-.125-.022-.19-.033l1.561-.6c2.64-1.017 5.631-2.17 6.938-2.731a2.017 2.017 0 0 0 .737-.534h.016c4.843 0 25.129 5.822 25.333 5.88l.077.02c.318.07.813.142 1.428.209a30.056 30.056 0 0 1-14.088 6.333zM59.263 44.47c-.13 1.017-.255 1.989-.336 2.917a19.568 19.568 0 0 1-4.873.383 56.006 56.006 0 0 1-7.95-.5c-1.261-.362-19.427-5.558-25.341-5.942a25.071 25.071 0 0 1 2.656-7.818c3.3-6 8.669-9.044 15.958-9.044a29.728 29.728 0 0 1 3.769.252C61.5 27.072 60.309 36.315 59.263 44.47z" transform="rotate(-19 -4.056 30.55)"/>
</svg>
