<svg xmlns="http://www.w3.org/2000/svg" width="49.097" height="45.84" viewBox="0 0 49.097 45.84">
    <path fill="#f50514" d="M51.462 41.962c-2.635-4.5-8.29-6.094-11.364-6.588 1.592-4.447 4.831-15.7.439-22.289C38.4 9.847 34.773 8.2 29.832 8.2c-4.832 0-8.344 1.592-10.485 4.776-4.447 6.588-1.263 17.952.22 22.4-3.019.494-8.729 2.086-11.364 6.588A21.3 21.3 0 0 0 5.347 54.04l3.019-.329a18.756 18.756 0 0 1 2.47-10.266c2.8-4.831 10.815-5.325 10.925-5.325l2.086-.11-.769-1.921c-.055-.165-5.819-14.6-1.208-21.41 1.537-2.306 4.172-3.459 7.96-3.459 3.953 0 6.643 1.153 8.18 3.513 4.557 6.807-1.372 21.136-1.427 21.3l-.823 1.976 2.141.11c.055 0 8.07.494 10.925 5.325A18.756 18.756 0 0 1 51.3 53.711l3.019.329a21.364 21.364 0 0 0-2.857-12.078zm-21.63 2.8a7.245 7.245 0 0 1-5.932-3.294l-1.318.769-1.318.769a10.107 10.107 0 0 0 8.564 4.831 10.793 10.793 0 0 0 8.784-4.776l-2.58-1.592a7.838 7.838 0 0 1-6.2 3.293z" transform="translate(-5.283 -8.2)"/>
</svg>
