<svg xmlns="http://www.w3.org/2000/svg" width="50" height="49.987" viewBox="0 0 50 49.987">
    <defs>
        <style>
            .cls-1{fill:#f50514}
        </style>
    </defs>
    <g id="Group_293" transform="translate(-2.55 -2.55)">
        <path id="Path_490" d="M52.116 21.581l-5.422-5.422a1.464 1.464 0 0 0-2 0 4.2 4.2 0 0 1-5.844 0 4.02 4.02 0 0 1-1.211-2.9 3.934 3.934 0 0 1 1.211-2.9 1.4 1.4 0 0 0 0-2l-5.37-5.422a1.464 1.464 0 0 0-2 0L2.945 31.479a1.464 1.464 0 0 0 0 2L8.367 38.9a1.464 1.464 0 0 0 2 0 4.11 4.11 0 0 1 2.9-1.211 4.02 4.02 0 0 1 2.9 1.211 4.11 4.11 0 0 1 1.211 2.9 3.934 3.934 0 0 1-1.211 2.9 1.4 1.4 0 0 0 0 2l5.422 5.422a1.4 1.4 0 0 0 2 0l28.527-28.54a1.369 1.369 0 0 0 0-2.001zM22.582 49.168l-3.528-3.528a6.89 6.89 0 0 0-5.791-10.687 6.844 6.844 0 0 0-3.79 1.158l-3.527-3.527L32.479 5.893l3.527 3.527a6.844 6.844 0 0 0-1.158 3.79 7.069 7.069 0 0 0 2 4.9 6.829 6.829 0 0 0 8.687.89l3.527 3.527z" class="cls-1"/>
        <path id="Path_491" d="M52.545 30.545a1.415 1.415 0 1 0-2 2l7.581 7.581a1.4 1.4 0 0 0 2 0 1.464 1.464 0 0 0 0-2z" class="cls-1" transform="translate(-22.541 -13.07)"/>
        <path id="Path_492" d="M42.527 40.545a1.464 1.464 0 0 0-2 0 1.414 1.414 0 0 0 0 2l7.581 7.581a1.4 1.4 0 0 0 2 0 1.464 1.464 0 0 0 0-2z" class="cls-1" transform="translate(-17.787 -17.805)"/>
        <path id="Path_493" d="M32.545 50.545a1.415 1.415 0 1 0-2 2l7.581 7.581a1.4 1.4 0 0 0 2 0 1.464 1.464 0 0 0 0-2z" class="cls-1" transform="translate(-13.07 -22.541)"/>
    </g>
</svg>
