<svg xmlns="http://www.w3.org/2000/svg" width="33.588" height="45.68" viewBox="0 0 33.588 45.68">
    <path fill="#f50514" fill-rule="evenodd" d="M185.529 301.649c.249-.19.7-.506 1.327-.9a33.132 33.132 0 0 1 3.485-1.926 24.682 24.682 0 0 1 22.906 0 33.133 33.133 0 0 1 3.485 1.926c.628.4 1.077.715 1.327.9a1.343 1.343 0 0 1 .529 1.069v22.168a16.794 16.794 0 0 1-33.588 0v-22.168a1.343 1.343 0 0 1 .529-1.069zm2.158 1.763v21.474a14.107 14.107 0 0 0 28.214 0v-21.474q-.277-.188-.611-.4a30.465 30.465 0 0 0-3.2-1.769 22.013 22.013 0 0 0-20.59 0 30.466 30.466 0 0 0-3.2 1.769q-.336.212-.613.4zm19.986 22.94l-.524-.314a1.344 1.344 0 0 1 1.382-2.3l3.359 2.015a1.344 1.344 0 1 1-1.382 2.3l-.53-.318a9.492 9.492 0 0 1-8.184 4.54c-4.1 0-7.648-2.6-8.663-5.617a1.344 1.344 0 1 1 2.547-.857c.65 1.932 3.178 3.787 6.116 3.787a6.787 6.787 0 0 0 5.879-3.236zm-12.6-10.871a2.687 2.687 0 1 1 2.687-2.687 2.687 2.687 0 0 1-2.684 2.687zm13.435 0a2.687 2.687 0 1 1 2.687-2.687 2.687 2.687 0 0 1-2.683 2.687z" transform="translate(-185 -296)"/>
</svg>
