<svg xmlns="http://www.w3.org/2000/svg" width="37.201" height="51.151" viewBox="0 0 37.201 51.151">
    <path fill="#f50514" d="M38.876 31.226V24.25a16.275 16.275 0 0 0-9.3-14.671V2.163A1.163 1.163 0 0 0 28.413 1H16.788a1.163 1.163 0 0 0-1.163 1.163v7.416a16.275 16.275 0 0 0-9.3 14.671v6.975A7.626 7.626 0 0 0 4 36.736v11.927a3.488 3.488 0 0 0 3.488 3.488h30.225a3.488 3.488 0 0 0 3.487-3.488v-12.02a7.626 7.626 0 0 0-2.325-5.417zM17.95 3.325h9.3v5.324a16.275 16.275 0 0 0-9.3 0zM8.65 24.25a13.95 13.95 0 0 1 27.9 0v5.3a7.6 7.6 0 0 0-3.092-.651H11.742a7.6 7.6 0 0 0-3.092.651zm30.226 24.413a1.163 1.163 0 0 1-1.163 1.163H7.488a1.163 1.163 0 0 1-1.163-1.163v-3.487h32.551zm0-5.813H6.325v-6.207a5.417 5.417 0 0 1 5.417-5.417h3.883v3.488a1.163 1.163 0 1 0 2.325 0v-3.488h15.508a5.417 5.417 0 0 1 5.417 5.417z" transform="translate(-4 -1)"/>
</svg>
