<svg xmlns="http://www.w3.org/2000/svg" width="70.79" height="57.151" viewBox="0 0 70.79 57.151">
    <path fill="#f50514" d="M25.395 23.007a1.4 1.4 0 0 0-.894.458L11.249 38.107a1.4 1.4 0 0 0-.218.218 10.237 10.237 0 0 0-.894.567c-.009.006-.013.016-.022.022a1.4 1.4 0 0 0-.24.131c-.014.011-.03.011-.044.022s-.044.043-.065.065a10.048 10.048 0 0 0-3.749 7.06A11.947 11.947 0 0 0 8 53.185c2.617 4.2 7.076 7.4 11.225 7.474h.044c3.15-.076 6.138-1.821 8.5-4.14a16.29 16.29 0 0 0 4.708-8.149 1.394 1.394 0 0 0 .022-.261v-.85a1.4 1.4 0 0 0 .371-.349c1.428-1.7 2.688-2.3 3.793-2.288h.044c1.1-.015 2.364.592 3.793 2.288a1.4 1.4 0 0 0 .371.349v.85a1.394 1.394 0 0 0 .022.261 16.29 16.29 0 0 0 4.707 8.149c2.363 2.319 5.35 4.064 8.5 4.14h.044c4.149-.069 8.608-3.272 11.225-7.474a11.947 11.947 0 0 0 1.983-6.994 10.048 10.048 0 0 0-3.749-7.06q-.032-.034-.065-.065c-.014-.011-.03-.011-.044-.022l-.044-.022-.087-.065q-.054-.024-.109-.044a10.2 10.2 0 0 0-.915-.567 1.4 1.4 0 0 0-.218-.24L48.869 23.464a1.435 1.435 0 0 0-1.308-.436 5.082 5.082 0 0 0-.61.24 6.139 6.139 0 0 0-1.09.7A16.425 16.425 0 0 0 42.5 27.8a1.4 1.4 0 0 0 2.31 1.569 14.135 14.135 0 0 1 2.746-3.2l9.765 10.786h-3.2a20.95 20.95 0 0 0-7.738 1.373 8.947 8.947 0 0 0-5.449 5.142 6.743 6.743 0 0 0-4.229-1.634h-.044a6.743 6.743 0 0 0-4.229 1.634 8.947 8.947 0 0 0-5.449-5.142 20.95 20.95 0 0 0-7.738-1.373h-3.2l9.765-10.786a14.135 14.135 0 0 1 2.746 3.2 1.4 1.4 0 0 0 2.31-1.569 16.425 16.425 0 0 0-3.357-3.835 6.138 6.138 0 0 0-1.09-.7 5.082 5.082 0 0 0-.61-.24 1.4 1.4 0 0 0-.414-.022zm-9.634 16.734h3.487a18.552 18.552 0 0 1 6.692 1.177 6.191 6.191 0 0 1 3.771 3.377v3.617a13.976 13.976 0 0 1-3.9 6.6c-1.991 1.955-4.441 3.281-6.539 3.356h-.022c-2.574-.055-6.72-2.691-8.871-6.145a9.346 9.346 0 0 1-1.569-5.382 7.024 7.024 0 0 1 2.768-5.1 7.844 7.844 0 0 1 4.185-1.5zm38.362 0h3.487a7.844 7.844 0 0 1 4.185 1.5 7.024 7.024 0 0 1 2.768 5.1 9.346 9.346 0 0 1-1.569 5.382c-2.152 3.454-6.3 6.089-8.871 6.145H54.1c-2.1-.075-4.548-1.4-6.539-3.356a13.976 13.976 0 0 1-3.9-6.6v-3.617a6.191 6.191 0 0 1 3.771-3.377 18.552 18.552 0 0 1 6.69-1.177z" transform="rotate(-21 .284 38.683)"/>
</svg>
