<svg xmlns="http://www.w3.org/2000/svg" width="45.651" height="46.7" viewBox="0 0 45.651 46.7">
    <g>
        <path fill="#f50514" stroke="#f50c1a" d="M1132.247 1024.708c-3.076 4.872-12.712 12.311-18.155 13.947-1.921 4.2 1.018 7.479 1.252 11.682a.971.971 0 0 1-1.561.818c-3.4-2.436-5.958-8.171-7.125-14.65-2.207-12.277.8-31.4 16.8-30.815 2.928.109 9.406 1.7 11.07 4.26a15.956 15.956 0 0 1 10.67 4c10.024 9.252 4.26 28.356-3.368 36.619-.738.8-1.876.114-1.59-1.149 1.951-8.587.933-20.406-7.993-24.712zm-.034-2.133c9.406 3.888 11.659 14.61 10.527 23.77 5.352-7.668 9.424-23.342 1.149-30.981-2.3-2.121-5.541-3.431-9.835-3.488-.509-.006-1.292-.44-1.264-1.018-1.738-1.9-6.913-3.145-9.4-3.237-14.53-.537-16.794 17.612-14.833 28.539.818 4.529 2.31 8.623 4.266 11.282-.114-.389-.24-.772-.366-1.155-.858-2.636-1.681-5.146-.086-8.52.217-.452.412-.886 1.018-.909 3.174 0 15.147-9.469 17.446-13.541.291-.517.623-1.05 1.378-.742z" transform="translate(-1105.435 -1005.176)"/>
    </g>
</svg>
