<svg xmlns="http://www.w3.org/2000/svg" width="45" height="44.912" viewBox="0 0 45 44.912">
    <defs>
        <style>
            .cls-1{fill:#f50514}
        </style>
    </defs>
    <g id="Group_310" transform="translate(4894.998 -3777)">
        <path id="Path_497" d="M49.573 20.666a6.019 6.019 0 0 1-2.7 4.841c-1.48 1.143-2.969 2.25-4.423 3.442a1.771 1.771 0 0 1-2.942-.85 1.525 1.525 0 0 1 .265-1.26 8.268 8.268 0 0 1 2.25-2.065c.985-.711 1.962-1.408 2.893-2.133a2.271 2.271 0 0 0 .477-3.6 3.75 3.75 0 0 0-3.361-1.728 6.861 6.861 0 0 0-1.989.81 9.544 9.544 0 0 0-.9.5 1.656 1.656 0 0 1-2.29-.657 1.629 1.629 0 0 1 .477-2.2 7.994 7.994 0 0 1 5.3-1.908 7.45 7.45 0 0 1 4.868 2.308 6.717 6.717 0 0 1 2 3.644 7.554 7.554 0 0 1 .075.856z" class="cls-1" transform="translate(-4915.139 3769.341)"/>
        <circle id="Ellipse_190" cx="2.061" cy="2.061" r="2.061" class="cls-1" transform="translate(-4876.656 3801.588)"/>
        <path id="Path_498" d="M14.187 35.142c-1.084-.27-2.146-.45-3.149-.8-5.9-2.119-9.6-6.258-10.627-12.462A21.727 21.727 0 0 1 .86 11.535C2.9 5.164 7.294 1.345 13.948.332a43.292 43.292 0 0 1 6.173-.2C23.158.1 26.2.049 29.245.139 36.016.3 40.893 3.446 43.736 9.632a13.016 13.016 0 0 1 1.219 5.237 56.278 56.278 0 0 1-.121 6.636 14.768 14.768 0 0 1-5.151 9.673 15.6 15.6 0 0 1-11.248 3.977 2.164 2.164 0 0 0-1.849.805c-2.461 2.7-4.949 5.4-7.464 8.058a2.771 2.771 0 0 1-4.544-.45 3.527 3.527 0 0 1-.36-1.552c-.04-2.137 0-4.27 0-6.407zm2.8 7.018l.477-.5c2.7-2.92 5.439-5.849 8.139-8.773a1.543 1.543 0 0 1 1.269-.549 23.266 23.266 0 0 0 5-.261A12.89 12.89 0 0 0 42.22 19.345a30.8 30.8 0 0 0-.274-6.137A12.831 12.831 0 0 0 29.375 2.946h-13.2a14.716 14.716 0 0 0-2.879.3A12.849 12.849 0 0 0 3.2 13.879a37.84 37.84 0 0 0-.2 5.205 14.586 14.586 0 0 0 .238 2.834 12.917 12.917 0 0 0 12.447 10.425h1.3z" class="cls-1" transform="translate(-4895 3776.911)"/>
    </g>
</svg>
