<svg xmlns="http://www.w3.org/2000/svg" width="37.57" height="37.57" viewBox="0 0 37.57 37.57">
  <defs>
    <style>
      .cls-1 {
        fill: #f50514;
      }
    </style>
  </defs>
  <g id="Group_324" data-name="Group 324" transform="translate(-11.505 -963.867)">
    <path id="Path_509" data-name="Path 509" class="cls-1" d="M26.494,998.87a8.784,8.784,0,1,1-12.422-12.422l6.9-6.9a8.8,8.8,0,0,1,12.422,0,1.464,1.464,0,1,1-2.07,2.071,5.811,5.811,0,0,0-8.281,0l-6.9,6.9a5.856,5.856,0,1,0,8.281,8.281l6.556-6.556a1.464,1.464,0,1,1,2.07,2.07l-6.556,6.556Zm13.112-13.112a8.8,8.8,0,0,1-12.422,0,1.464,1.464,0,1,1,2.07-2.07,5.811,5.811,0,0,0,8.281,0l6.9-6.9a5.856,5.856,0,1,0-8.281-8.281L29.6,975.061a1.464,1.464,0,1,1-2.07-2.07l6.556-6.556a8.784,8.784,0,1,1,12.422,12.422Z" transform="translate(0)"/>
  </g>
</svg>
