<svg xmlns="http://www.w3.org/2000/svg" width="40" height="40" viewBox="0 0 40 40">
    <path fill="#f50c1a" d="M-12262-8655a19.838 19.838 0 0 1-7.783-1.572 19.905 19.905 0 0 1-6.358-4.284 19.955 19.955 0 0 1-4.286-6.357A19.859 19.859 0 0 1-12282-8675a19.846 19.846 0 0 1 1.572-7.784 19.944 19.944 0 0 1 4.286-6.357 19.967 19.967 0 0 1 6.358-4.287A19.854 19.854 0 0 1-12262-8695a19.86 19.86 0 0 1 7.785 1.571 19.92 19.92 0 0 1 6.357 4.287 19.912 19.912 0 0 1 4.286 6.357A19.862 19.862 0 0 1-12242-8675a19.875 19.875 0 0 1-1.571 7.786 19.923 19.923 0 0 1-4.286 6.357 19.9 19.9 0 0 1-6.357 4.284A19.844 19.844 0 0 1-12262-8655zm3.49-28.5l-8.491 8.491.011.01-.011.01 8.491 8.491 1.889-1.889-6.616-6.612 6.616-6.613-1.889-1.888z" opacity="0.9" transform="rotate(180 -6121.002 -4327.5)"/>
</svg>
