<svg xmlns="http://www.w3.org/2000/svg" width="165.982" height="26.305" viewBox="0 0 165.982 26.305">
    <path fill="#f50514" d="M125.356 76.763c0-7.557 4.732-13.17 12.181-13.17s12.147 5.614 12.147 13.17S144.988 89.9 137.537 89.9s-12.181-5.581-12.181-13.137zm19.1 0c0-5.049-2.26-8.969-6.885-8.969s-6.991 3.919-6.991 8.969c0 5.014 2.366 8.934 6.991 8.934s6.887-3.92 6.887-8.934zm9.6 12.57h5.049V76.3c0-1.765-.142-4.413-.142-4.413h.071s.989 2.153 1.8 3.5l8.616 13.947h4.95V64.087h-5.05v13.241c0 1.765.141 4.378.141 4.378h-.071s-.953-2.154-1.765-3.531l-8.4-14.089h-5.191zm26.163 0H198.9V85.06h-13.556v-6.815h11.793v-4.2h-11.793v-5.65H198.8v-4.308h-18.576zm23.621-25.246h11.087a8.844 8.844 0 0 1 6.6 2.366 8.08 8.08 0 0 1 2.26 5.755c0 4.766-3.142 7.98-8.438 7.98h-6.215v9.145h-5.3zm5.3 11.935h5.3c2.684 0 4.1-1.483 4.1-3.778 0-2.366-1.483-3.708-4.025-3.708h-5.367zm18.43 13.311h16.984V85.06h-11.863V64.087h-5.12zm19.7-8.121c0 5.473 3.425 8.545 9.958 8.545 6.461 0 9.781-3.143 9.781-8.545V64.087h-5.12v17.055c0 2.613-1.518 4.519-4.766 4.519-3.425 0-4.731-1.837-4.731-4.449V64.087h-5.12zm23.339.318c.176 5.331 4.061 8.368 10.911 8.368 5.684 0 9.815-2.86 9.815-7.98 0-5.438-4.236-6.674-9.427-7.8-3.743-.813-5.508-1.413-5.508-3.461 0-1.8 1.8-2.966 4.555-2.966 2.613 0 4.591 1.271 4.873 3.814h4.908c-.389-5.084-4.06-7.874-9.746-7.874-5.614 0-9.675 2.578-9.675 7.557 0 5.26 4.131 6.461 8.651 7.485 3.849.883 6.25 1.377 6.25 3.848 0 2.331-2.3 3.249-4.908 3.249-3.6 0-5.331-1.2-5.685-4.237z" transform="translate(-125.356 -63.592)"/>
</svg>
