<svg xmlns="http://www.w3.org/2000/svg" width="38.563" height="40" viewBox="0 0 38.563 40">
    <g>
        <path fill="#f50c1a" d="M183.518 141.43a11.661 11.661 0 1 1-11.661 11.661 11.661 11.661 0 0 1 11.661-11.661zm16.653 26.085v5.165h5.165v2.59h-5.166v5.165h-2.59v-5.165h-5.165v-2.59h5.165v-5.165zm-26.042-.995h18.779a8 8 0 0 1 2.936.525v2.972a4.8 4.8 0 0 0-2.936-.907h-18.779c-6.4 0-6.4 9.729 0 9.729h18.779a4.8 4.8 0 0 0 2.936-.907v2.972a8 8 0 0 1-2.936.525h-18.779c-9.809.001-9.809-14.908 0-14.908zm18.46-13.429a9.071 9.071 0 1 0-9.071 9.071 9.071 9.071 0 0 0 9.071-9.071z" transform="translate(-166.772 -141.43)"/>
    </g>
</svg>
