<svg xmlns="http://www.w3.org/2000/svg" width="38.56" height="32.133" viewBox="0 0 38.56 32.133">
    <g>
        <path fill="#f50514" d="M17.583 20.318a1.607 1.607 0 0 1-1.337.715H9.82a1.607 1.607 0 0 0-1.607 1.607v17.673A1.607 1.607 0 0 0 9.82 41.92h28.92a1.607 1.607 0 0 0 1.607-1.607V22.64a1.607 1.607 0 0 0-1.607-1.607h-6.427a1.607 1.607 0 0 1-1.337-.715l-2.736-4.1h-7.92zm21.157-2.5a4.82 4.82 0 0 1 4.82 4.82v17.675a4.82 4.82 0 0 1-4.82 4.82H9.82A4.82 4.82 0 0 1 5 40.313V22.64a4.82 4.82 0 0 1 4.82-4.82h5.567l2.736-4.1A1.607 1.607 0 0 1 19.46 13h9.64a1.607 1.607 0 0 1 1.337.715l2.736 4.1zM24.28 38.707a8.033 8.033 0 1 1 8.033-8.033 8.033 8.033 0 0 1-8.033 8.033zm0-3.213a4.82 4.82 0 1 0-4.82-4.82 4.82 4.82 0 0 0 4.82 4.819z" transform="translate(-5 -13)"/>
    </g>
</svg>
