<svg xmlns="http://www.w3.org/2000/svg" width="37" height="37" viewBox="0 0 37 37">
    <path fill="#f50514" d="M31.393 24.786a6.571 6.571 0 0 0-5.193 2.561l-12.242-6.125a5.925 5.925 0 0 0 0-3.444l12.247-6.123a6.573 6.573 0 1 0-1.421-4.048 6.557 6.557 0 0 0 .255 1.722l-12.245 6.123a6.607 6.607 0 1 0 0 8.094l12.247 6.125a6.5 6.5 0 0 0-.256 1.722 6.607 6.607 0 1 0 6.607-6.607zm0-21.143a3.964 3.964 0 1 1-3.964 3.964 3.965 3.965 0 0 1 3.964-3.964zM7.607 23.464a3.964 3.964 0 1 1 3.964-3.964 3.966 3.966 0 0 1-3.964 3.964zm23.786 11.893a3.964 3.964 0 1 1 3.964-3.964 3.966 3.966 0 0 1-3.964 3.964z" transform="translate(-1 -1)"/>
</svg>
