<svg xmlns="http://www.w3.org/2000/svg" width="67.543" height="52.976" viewBox="0 0 67.543 52.976">
    <path fill="#f50514" d="M53.161 41.588a29.076 29.076 0 0 1-8.04-1.9c.065-.131.2-.2.2-.261a1.33 1.33 0 0 0-.131-1.83 1.268 1.268 0 0 0-1.83.131c-.065.065-.327.392-.719.85q-1.275-.686-2.353-1.373c.131-.131.261-.327.392-.458l.2-.2a1.328 1.328 0 0 0-.2-1.83 1.407 1.407 0 0 0-1.83.327l-.131.2a3.592 3.592 0 0 0-.458.588 18.307 18.307 0 0 1-1.961-1.761c.065-.131.2-.2.261-.327l.261-.261a1.241 1.241 0 0 0-.2-1.765 1.328 1.328 0 0 0-1.83.2l-.2.261-.065.065c-.131-.131-.2-.261-.327-.327a2.843 2.843 0 0 1-.392-.458 4.719 4.719 0 0 0-3.791-1.961c-1.765.065-3.6 1.373-5.622 4.118-4.184 5.491-12.355-.2-12.42-.261-.131-.131-.327-.2-.458-.327-1.177-.915-2.746-2.157-4.576-1.7-1.177.131-2.092 1.046-2.811 2.419C2.434 37.274 2.5 45.314 2.5 49.171v1.046a4.657 4.657 0 0 0 1.307 3.661c1.83 1.83 5.23 1.83 11.9 1.83 1.9 0 4.118 0 6.6.065 3.857.065 8.563.2 13.008.327 5.491.131 10.721.327 13.793.327 4.772 0 11.374-1.046 14.12-3.988a5.052 5.052 0 0 0 1.438-3.791c-.458-5.948-4.38-6.341-11.505-7.06zM7.468 33.744c.588-.131 1.7.719 2.419 1.242.2.131.327.261.523.392 2.811 2.026 11.178 6.014 16.015-.261 2.026-2.68 3.2-3.072 3.726-3.138.588-.065 1.111.458 1.765 1.177a3.945 3.945 0 0 0 .523.523l.458.458c-.915 1.177-1.9 2.484-2.419 3.268a1.36 1.36 0 0 0 .458 1.765 1.261 1.261 0 0 0 .654.2 1.213 1.213 0 0 0 1.111-.654c.327-.523.981-1.438 1.961-2.68.588.523 1.242 1.177 1.961 1.765a14.857 14.857 0 0 0-1.5 2.157 1.242 1.242 0 0 0 .458 1.765 1.261 1.261 0 0 0 .654.2 1.213 1.213 0 0 0 1.111-.654c.2-.327.588-.915 1.373-1.961.719.458 1.438.915 2.288 1.373-.392.458-.719.915-.981 1.242a1.311 1.311 0 0 0 .261 1.765 1.256 1.256 0 0 0 .784.261 1.365 1.365 0 0 0 1.046-.523c.327-.458.784-1.046 1.242-1.634a32.948 32.948 0 0 0 9.479 2.353c3.857.392 6.145.719 7.452 1.373a19.742 19.742 0 0 1-6.21 1.634c-5.491.784-12.486.392-18.7 0-2.68-.131-5.295-.327-7.517-.327-3.465-.065-9.021-.2-13.924-.392-1.242-5.949-5.556-7.975-8.433-8.367a11.252 11.252 0 0 1 .85-3.2c.458-.666.785-1.057 1.112-1.122zM11.39 46.36c-2.811-.065-5.164-.2-6.341-.2 0-1.7.065-3.661.2-5.556a7.364 7.364 0 0 1 6.141 5.756zm49.877 4.314c-2.026 2.157-7.779 3.138-12.224 3.138-3.007 0-8.171-.131-13.662-.327-4.51-.131-9.217-.261-13.074-.327-1.83 0-3.465-.065-5.033-.065h-1.635c-5.426 0-8.956 0-10.067-1.046a2.506 2.506 0 0 1-.523-1.9v-1.5c3.465.131 16.6.588 22.814.654 2.157.065 4.707.2 7.387.327 3.6.2 7.517.458 11.309.458a59.954 59.954 0 0 0 7.91-.458c3.922-.588 6.145-1.373 7.387-2.092a5.863 5.863 0 0 1 .131 1.177 2.262 2.262 0 0 1-.72 1.962z" transform="rotate(28 66.774 35.12)"/>
</svg>
