<svg xmlns="http://www.w3.org/2000/svg" width="58.62" height="37.568" viewBox="0 0 58.62 37.568">
  <defs>
    <style>
      .cls-1 {
        fill: #f50514;
      }
    </style>
  </defs>
  <g id="Active" transform="translate(-631.381 -295)">
    <path id="Path_547" data-name="Path 547" class="cls-1" d="M42.838,46.955a1.274,1.274,0,0,1-.886-.373,1.239,1.239,0,0,1,0-1.725,21.729,21.729,0,0,0,.093-30.685,1.3,1.3,0,0,1,0-1.772,1.239,1.239,0,0,1,1.725,0,24.141,24.141,0,0,1,7.042,17.068,23.872,23.872,0,0,1-7.135,17.114A1.254,1.254,0,0,1,42.838,46.955Zm-4.57-5.783a16.494,16.494,0,0,0,.093-23.363,1.22,1.22,0,0,0-1.725,1.725A14.073,14.073,0,0,1,36.542,39.4a1.239,1.239,0,0,0,0,1.725,1.274,1.274,0,0,0,.886.373A1.024,1.024,0,0,0,38.268,41.172Z" transform="translate(639.188 283.949)"/>
    <path id="Path_548" data-name="Path 548" class="cls-1" d="M44.167,46.955a1.274,1.274,0,0,0,.886-.373,1.239,1.239,0,0,0,0-1.725,21.729,21.729,0,0,1-.093-30.685,1.3,1.3,0,0,0,0-1.772,1.239,1.239,0,0,0-1.725,0,24.141,24.141,0,0,0-7.042,17.068,23.872,23.872,0,0,0,7.135,17.114A1.254,1.254,0,0,0,44.167,46.955Zm4.57-5.783a16.494,16.494,0,0,1-.093-23.363,1.22,1.22,0,0,1,1.725,1.725A14.073,14.073,0,0,0,50.462,39.4a1.239,1.239,0,0,1,0,1.725,1.274,1.274,0,0,1-.886.373A1.024,1.024,0,0,1,48.737,41.172Z" transform="translate(595.188 283.949)"/>
    <g id="Group_323" data-name="Group 323" transform="translate(948.355 -11305)">
      <path id="Path_507" data-name="Path 507" class="cls-1" d="M163.9,0a7.293,7.293,0,0,0-7.293,7.293v10.7a7.293,7.293,0,0,0,14.586,0V7.293A7.293,7.293,0,0,0,163.9,0Zm4.862,17.99a4.862,4.862,0,0,1-9.724,0V7.293a4.862,4.862,0,0,1,9.724,0Z" transform="translate(-451.758 11600)"/>
      <path id="Path_508" data-name="Path 508" class="cls-1" d="M96.929,237.169v5.053H92.067a1.216,1.216,0,0,0,0,2.431h12.155a1.216,1.216,0,0,0,0-2.431H99.361v-5.053a12.516,12.516,0,0,0,11.284-12.44,1.216,1.216,0,1,0-2.431,0,10.069,10.069,0,0,1-20.137,0,1.216,1.216,0,1,0-2.431,0A12.516,12.516,0,0,0,96.929,237.169Z" transform="translate(-386 11392.915)"/>
    </g>
  </g>
</svg>
