<svg xmlns="http://www.w3.org/2000/svg" width="27.382" height="45.859" viewBox="0 0 27.382 45.859">
    <g fill="none">
        <path stroke="#f50514" stroke-linecap="round" stroke-width="3px" d="M0 0L0 7" transform="translate(2168 -3002) translate(-2154.5 3011.5)"/>
        <g>
            <path d="M3.175 0h21.032c1.753 0 3.175 1.085 3.175 2.423v41.013c0 1.338-1.421 2.423-3.175 2.423H3.175C1.421 45.859 0 44.774 0 43.436V2.423C0 1.085 1.421 0 3.175 0z" transform="translate(2168 -3002) translate(-2168 3002)"/>
            <path fill="#f50514" d="M3.175 2.5c-.316 0-.551.087-.675.16V43.2c.124.072.359.16.675.16h21.032c.316 0 .551-.088.675-.16V2.66c-.124-.073-.359-.16-.675-.16H3.175m0-2.5h21.032c1.754 0 3.175 1.085 3.175 2.423v41.013c0 1.338-1.421 2.423-3.175 2.423H3.175C1.42 45.86 0 44.774 0 43.436V2.423C0 1.085 1.421 0 3.175 0z" transform="translate(2168 -3002) translate(-2168 3002)"/>
        </g>
    </g>
</svg>
