<svg xmlns="http://www.w3.org/2000/svg" width="40" height="46.366" viewBox="0 0 40 46.366">
    <defs>
        <style>
            .cls-1{fill:#f50514}
        </style>
    </defs>
    <g id="Group_94" transform="translate(-8434 -4512.671)">
        <g id="Group_91" transform="translate(8434 4545.042)">
            <path id="Path_388" d="M49.739 74.409c-9.7 0-20-2.641-20-7.537a1.119 1.119 0 0 1 2.238 0c0 2.212 6.758 5.3 17.763 5.3s17.76-3.087 17.76-5.3a1.119 1.119 0 0 1 2.238 0c0 4.895-10.303 7.537-19.999 7.537z" class="cls-1" transform="translate(-29.738 -60.414)"/>
            <g id="Group_89" transform="translate(2.662)">
                <path id="Path_378" d="M57.712 65.786a1.121 1.121 0 0 1-.575-.16A12.5 12.5 0 0 0 55.928 65a1.118 1.118 0 1 1 .925-2.037 14.216 14.216 0 0 1 1.435.745 1.119 1.119 0 0 1-.576 2.078z" class="cls-1" transform="translate(-23.579 -61.002)"/>
                <path id="Path_379" d="M36.441 64.307a1.119 1.119 0 0 1-.28-2.2c.86-.224 1.774-.421 2.718-.591a1.12 1.12 0 0 1 .4 2.2c-.888.158-1.748.346-2.553.554a1.23 1.23 0 0 1-.285.037zm22.731-.043a1.166 1.166 0 0 1-.277-.033c-.805-.2-1.665-.387-2.556-.543a1.12 1.12 0 0 1 .385-2.206c.946.166 1.861.361 2.722.579a1.119 1.119 0 0 1-.274 2.2zm-5.536-2.1c-.051.583.052-.616 0 0z" class="cls-1" transform="translate(-30.185 -61.465)"/>
                <path id="Path_380" d="M32.584 65.861a1.118 1.118 0 0 1-.592-2.067 13.593 13.593 0 0 1 1.43-.769 1.119 1.119 0 0 1 .948 2.027 11.485 11.485 0 0 0-1.194.639 1.111 1.111 0 0 1-.592.17z" class="cls-1" transform="translate(-31.464 -60.983)"/>
            </g>
        </g>
        <g id="noun_Human_2101244" transform="translate(8445.427 4512.671)">
            <path id="Path_387" fill="#f50c1a" d="M302.348 1165.346h-1.174a1.174 1.174 0 0 1-1.174-1.174v-9.979a4.694 4.694 0 0 1 4.694-4.694h8.22a4.693 4.693 0 0 1 4.694 4.694v9.979a1.174 1.174 0 0 1-1.174 1.174h-1.174v9.391a1.174 1.174 0 0 1-1.174 1.174h-10.564a1.174 1.174 0 0 1-1.174-1.174zm7.63 8.217h2.935v-9.391a1.174 1.174 0 0 1 1.174-1.174h1.174v-8.805a2.346 2.346 0 0 0-2.346-2.346h-8.22a2.346 2.346 0 0 0-2.346 2.346V1163h1.174a1.174 1.174 0 0 1 1.174 1.174v9.391h2.935v-7.043a1.174 1.174 0 0 1 2.348 0zm-1.174-25.825a5.869 5.869 0 1 1 5.869-5.869 5.869 5.869 0 0 1-5.873 5.87zm0-2.347a3.522 3.522 0 1 0-3.522-3.522 3.522 3.522 0 0 0 3.518 3.522z" transform="translate(-300 -1136)"/>
        </g>
    </g>
</svg>
