<svg xmlns="http://www.w3.org/2000/svg" width="57.515" height="46.474" viewBox="0 0 57.515 46.474">
    <g>
        <path fill="#f50514" stroke="#f50514" stroke-width="0.5px" d="M3.986 18.375l8.3-1.738a.89.89 0 0 1 1.05.691.87.87 0 0 1 .019.18v26.684h30.276V17.508a.888.888 0 0 1 .889-.889.827.827 0 0 1 .252.035L53 18.375l2.066-9.533L38.2 2.166a9.693 9.693 0 0 1-2.8 5.594 9.794 9.794 0 0 1-13.828 0 9.671 9.671 0 0 1-2.794-5.594L1.92 8.842l2.066 9.533zM19.781.022a49.77 49.77 0 0 0 8.713.76 51.7 51.7 0 0 0 8.716-.76.878.878 0 0 1 .514.041l18.7 7.4a.893.893 0 0 1 .542 1.015l-2.412 11.136a.892.892 0 0 1-1.05.681L45.413 18.6v26.485a.891.891 0 0 1-.892.889H12.465a.888.888 0 0 1-.889-.889V18.6l-8.085 1.7a.888.888 0 0 1-1.056-.681L.028 8.511a.888.888 0 0 1 .536-1.047L19.223.079A.9.9 0 0 1 19.589 0a.766.766 0 0 1 .192.022zm16.654 1.924a52.86 52.86 0 0 1-7.94.612 51.68 51.68 0 0 1-7.944-.605 7.92 7.92 0 0 0 2.28 4.55 8.028 8.028 0 0 0 11.324 0 7.891 7.891 0 0 0 2.28-4.557z" transform="translate(.267 .25)"/>
    </g>
</svg>
