<svg xmlns="http://www.w3.org/2000/svg" width="142" height="92" viewBox="0 0 142 92">
    <defs>
        <style>
            .cls-1,.cls-4{fill:none}.cls-1{stroke:#f50514}.cls-2{fill:#f50514;font-size:20px;font-family:OnePlusSansDisplay,OnePlus Sans Display}.cls-3{stroke:none}
        </style>
    </defs>
    <g id="Group_341" transform="translate(-840 -328)">
        <g id="Rectangle_211" class="cls-1" transform="translate(876 328)">
            <rect width="44" height="44" class="cls-3" rx="8"/>
            <rect width="43" height="43" x=".5" y=".5" class="cls-4" rx="7.5"/>
        </g>
        <text id="W" class="cls-2" transform="translate(889 358)">
            <tspan x="0" y="0">W</tspan>
        </text>
        <g id="Rectangle_212" class="cls-1" transform="translate(840 376)">
            <rect width="44" height="44" class="cls-3" rx="8"/>
            <rect width="43" height="43" x=".5" y=".5" class="cls-4" rx="7.5"/>
        </g>
        <text id="A" class="cls-2" transform="translate(856 406)">
            <tspan x="0" y="0">A</tspan>
        </text>
        <g id="Rectangle_213" class="cls-1" transform="translate(889 376)">
            <rect width="44" height="44" class="cls-3" rx="8"/>
            <rect width="43" height="43" x=".5" y=".5" class="cls-4" rx="7.5"/>
        </g>
        <text id="S" class="cls-2" transform="translate(905 406)">
            <tspan x="0" y="0">S</tspan>
        </text>
        <g id="Rectangle_214" class="cls-1" transform="translate(938 376)">
            <rect width="44" height="44" class="cls-3" rx="8"/>
            <rect width="43" height="43" x=".5" y=".5" class="cls-4" rx="7.5"/>
        </g>
        <text id="D" class="cls-2" transform="translate(953 406)">
            <tspan x="0" y="0">D</tspan>
        </text>
    </g>
</svg>
