{
    "asset" : {
        "generator" : "Khronos glTF Blender I/O v1.2.75",
        "version" : "2.0"
    },
    "extensionsUsed" : [
        "KHR_materials_unlit"
    ],
    "scene" : 0,
    "scenes" : [
        {
            "name" : "Scene",
            "nodes" : [
                0,
                1,
                2,
                3,
                4,
                5,
                6,
                7
            ]
        }
    ],
    "nodes" : [
        {
            "name" : "Light",
            "rotation" : [
                0.16907575726509094,
                0.7558803558349609,
                -0.27217137813568115,
                0.570947527885437
            ],
            "translation" : [
                4.076245307922363,
                5.903861999511719,
                -1.0054539442062378
            ]
        },
        {
            "name" : "Camera",
            "rotation" : [
                0.483536034822464,
                0.33687159419059753,
                -0.20870360732078552,
                0.7804827094078064
            ],
            "translation" : [
                7.358891487121582,
                4.958309173583984,
                6.925790786743164
            ]
        },
        {
            "mesh" : 0,
            "name" : "Top02",
            "rotation" : [
                0.7071068286895752,
                0,
                0,
                0.7071067094802856
            ],
            "scale" : [
                0.009999999776482582,
                0.009999999776482582,
                0.009999999776482582
            ]
        },
        {
            "mesh" : 1,
            "name" : "Top01",
            "rotation" : [
                0.7071068286895752,
                0,
                0,
                0.7071067094802856
            ],
            "scale" : [
                0.009999999776482582,
                0.009999999776482582,
                0.009999999776482582
            ]
        },
        {
            "mesh" : 2,
            "name" : "Short",
            "rotation" : [
                0.7071068286895752,
                0,
                0,
                0.7071067094802856
            ],
            "scale" : [
                0.009999999776482582,
                0.009999999776482582,
                0.009999999776482582
            ]
        },
        {
            "mesh" : 3,
            "name" : "Hand",
            "rotation" : [
                0.7071068286895752,
                0,
                0,
                0.7071067094802856
            ],
            "scale" : [
                0.009999999776482582,
                0.009999999776482582,
                0.009999999776482582
            ]
        },
        {
            "mesh" : 4,
            "name" : "Shoes",
            "rotation" : [
                0.7071068286895752,
                0,
                0,
                0.7071067094802856
            ],
            "scale" : [
                0.009999999776482582,
                0.009999999776482582,
                0.009999999776482582
            ]
        },
        {
            "mesh" : 5,
            "name" : "Legs",
            "rotation" : [
                0.7071068286895752,
                0,
                0,
                0.7071067094802856
            ],
            "scale" : [
                0.009999999776482582,
                0.009999999776482582,
                0.009999999776482582
            ]
        }
    ],
    "materials" : [
        {
            "doubleSided" : true,
            "extensions" : {
                "KHR_materials_unlit" : {}
            },
            "name" : "Top_02_Mate",
            "pbrMetallicRoughness" : {
                "baseColorFactor" : [
                    0.017977144569158554,
                    0.059695057570934296,
                    0.6038162708282471,
                    1
                ]
            }
        },
        {
            "doubleSided" : true,
            "extensions" : {
                "KHR_materials_unlit" : {}
            },
            "name" : "Top_01_Mate",
            "pbrMetallicRoughness" : {
                "baseColorFactor" : [
                    0.7484014630317688,
                    0.5053638219833374,
                    0.021250369027256966,
                    1
                ]
            }
        },
        {
            "doubleSided" : true,
            "extensions" : {
                "KHR_materials_unlit" : {}
            },
            "name" : "Ch02_body",
            "pbrMetallicRoughness" : {
                "baseColorTexture" : {
                    "index" : 0,
                    "texCoord" : 0
                }
            }
        }
    ],
    "meshes" : [
        {
            "name" : "Mesh",
            "primitives" : [
                {
                    "attributes" : {
                        "POSITION" : 0,
                        "NORMAL" : 1,
                        "TEXCOORD_0" : 2
                    },
                    "indices" : 3,
                    "material" : 0
                }
            ]
        },
        {
            "name" : "Mesh.001",
            "primitives" : [
                {
                    "attributes" : {
                        "POSITION" : 4,
                        "NORMAL" : 5,
                        "TEXCOORD_0" : 6
                    },
                    "indices" : 7,
                    "material" : 1
                }
            ]
        },
        {
            "name" : "Mesh.002",
            "primitives" : [
                {
                    "attributes" : {
                        "POSITION" : 8,
                        "NORMAL" : 9,
                        "TEXCOORD_0" : 10
                    },
                    "indices" : 11,
                    "material" : 2
                }
            ]
        },
        {
            "name" : "Mesh.003",
            "primitives" : [
                {
                    "attributes" : {
                        "POSITION" : 12,
                        "NORMAL" : 13,
                        "TEXCOORD_0" : 14
                    },
                    "indices" : 15,
                    "material" : 2
                }
            ]
        },
        {
            "name" : "Mesh.004",
            "primitives" : [
                {
                    "attributes" : {
                        "POSITION" : 16,
                        "NORMAL" : 17,
                        "TEXCOORD_0" : 18
                    },
                    "indices" : 19,
                    "material" : 2
                }
            ]
        },
        {
            "name" : "Mesh.005",
            "primitives" : [
                {
                    "attributes" : {
                        "POSITION" : 20,
                        "NORMAL" : 21,
                        "TEXCOORD_0" : 22
                    },
                    "indices" : 23,
                    "material" : 2
                }
            ]
        }
    ],
    "textures" : [
        {
            "source" : 0
        }
    ],
    "images" : [
        {
            "bufferView" : 12,
            "mimeType" : "image/jpeg",
            "name" : "Ch02_1001_Diffuse"
        }
    ],
    "accessors" : [
        {
            "bufferView" : 0,
            "componentType" : 5126,
            "count" : 5546,
            "max" : [
                65.99552154541016,
                13.679986953735352,
                -94.14952850341797
            ],
            "min" : [
                -65.99552154541016,
                -15.254912376403809,
                -151.74522399902344
            ],
            "type" : "VEC3"
        },
        {
            "bufferView" : 1,
            "componentType" : 5126,
            "count" : 5546,
            "type" : "VEC3"
        },
        {
            "bufferView" : 2,
            "componentType" : 5126,
            "count" : 5546,
            "type" : "VEC2"
        },
        {
            "bufferView" : 3,
            "componentType" : 5123,
            "count" : 30543,
            "type" : "SCALAR"
        },
        {
            "bufferView" : 4,
            "componentType" : 5126,
            "count" : 8599,
            "max" : [
                65.68159484863281,
                16.89674186706543,
                -101.43949127197266
            ],
            "min" : [
                -65.61503601074219,
                -15.189485549926758,
                -151.65921020507812
            ],
            "type" : "VEC3"
        },
        {
            "bufferView" : 5,
            "componentType" : 5126,
            "count" : 8599,
            "type" : "VEC3"
        },
        {
            "bufferView" : 6,
            "componentType" : 5126,
            "count" : 8599,
            "type" : "VEC2"
        },
        {
            "bufferView" : 7,
            "componentType" : 5123,
            "count" : 48144,
            "type" : "SCALAR"
        },
        {
            "bufferView" : 8,
            "componentType" : 5126,
            "count" : 1493,
            "max" : [
                20.16558837890625,
                12.406574249267578,
                -81.16459655761719
            ],
            "min" : [
                -20.25489616394043,
                -12.607254028320312,
                -107.92935943603516
            ],
            "type" : "VEC3"
        },
        {
            "bufferView" : 9,
            "componentType" : 5126,
            "count" : 1493,
            "type" : "VEC3"
        },
        {
            "bufferView" : 10,
            "componentType" : 5126,
            "count" : 1493,
            "type" : "VEC2"
        },
        {
            "bufferView" : 11,
            "componentType" : 5123,
            "count" : 8046,
            "type" : "SCALAR"
        },
        {
            "bufferView" : 13,
            "componentType" : 5126,
            "count" : 3668,
            "max" : [
                83.69294738769531,
                2.9726240634918213,
                -134.18641662597656
            ],
            "min" : [
                -83.70625305175781,
                -10.560468673706055,
                -143.01766967773438
            ],
            "type" : "VEC3"
        },
        {
            "bufferView" : 14,
            "componentType" : 5126,
            "count" : 3668,
            "type" : "VEC3"
        },
        {
            "bufferView" : 15,
            "componentType" : 5126,
            "count" : 3668,
            "type" : "VEC2"
        },
        {
            "bufferView" : 16,
            "componentType" : 5123,
            "count" : 19656,
            "type" : "SCALAR"
        },
        {
            "bufferView" : 17,
            "componentType" : 5126,
            "count" : 1842,
            "max" : [
                25.14646339416504,
                15.352992057800293,
                -0.1059269979596138
            ],
            "min" : [
                -25.14646339416504,
                -13.476238250732422,
                -13.02921199798584
            ],
            "type" : "VEC3"
        },
        {
            "bufferView" : 18,
            "componentType" : 5126,
            "count" : 1842,
            "type" : "VEC3"
        },
        {
            "bufferView" : 19,
            "componentType" : 5126,
            "count" : 1842,
            "type" : "VEC2"
        },
        {
            "bufferView" : 20,
            "componentType" : 5123,
            "count" : 9732,
            "type" : "SCALAR"
        },
        {
            "bufferView" : 21,
            "componentType" : 5126,
            "count" : 1474,
            "max" : [
                22.269716262817383,
                8.927284240722656,
                -6.6074090003967285
            ],
            "min" : [
                -22.145036697387695,
                -12.549227714538574,
                -86.94928741455078
            ],
            "type" : "VEC3"
        },
        {
            "bufferView" : 22,
            "componentType" : 5126,
            "count" : 1474,
            "type" : "VEC3"
        },
        {
            "bufferView" : 23,
            "componentType" : 5126,
            "count" : 1474,
            "type" : "VEC2"
        },
        {
            "bufferView" : 24,
            "componentType" : 5123,
            "count" : 7560,
            "type" : "SCALAR"
        }
    ],
    "bufferViews" : [
        {
            "buffer" : 0,
            "byteLength" : 66552,
            "byteOffset" : 0
        },
        {
            "buffer" : 0,
            "byteLength" : 66552,
            "byteOffset" : 66552
        },
        {
            "buffer" : 0,
            "byteLength" : 44368,
            "byteOffset" : 133104
        },
        {
            "buffer" : 0,
            "byteLength" : 61086,
            "byteOffset" : 177472
        },
        {
            "buffer" : 0,
            "byteLength" : 103188,
            "byteOffset" : 238560
        },
        {
            "buffer" : 0,
            "byteLength" : 103188,
            "byteOffset" : 341748
        },
        {
            "buffer" : 0,
            "byteLength" : 68792,
            "byteOffset" : 444936
        },
        {
            "buffer" : 0,
            "byteLength" : 96288,
            "byteOffset" : 513728
        },
        {
            "buffer" : 0,
            "byteLength" : 17916,
            "byteOffset" : 610016
        },
        {
            "buffer" : 0,
            "byteLength" : 17916,
            "byteOffset" : 627932
        },
        {
            "buffer" : 0,
            "byteLength" : 11944,
            "byteOffset" : 645848
        },
        {
            "buffer" : 0,
            "byteLength" : 16092,
            "byteOffset" : 657792
        },
        {
            "buffer" : 0,
            "byteLength" : 2121509,
            "byteOffset" : 673884
        },
        {
            "buffer" : 0,
            "byteLength" : 44016,
            "byteOffset" : 2795396
        },
        {
            "buffer" : 0,
            "byteLength" : 44016,
            "byteOffset" : 2839412
        },
        {
            "buffer" : 0,
            "byteLength" : 29344,
            "byteOffset" : 2883428
        },
        {
            "buffer" : 0,
            "byteLength" : 39312,
            "byteOffset" : 2912772
        },
        {
            "buffer" : 0,
            "byteLength" : 22104,
            "byteOffset" : 2952084
        },
        {
            "buffer" : 0,
            "byteLength" : 22104,
            "byteOffset" : 2974188
        },
        {
            "buffer" : 0,
            "byteLength" : 14736,
            "byteOffset" : 2996292
        },
        {
            "buffer" : 0,
            "byteLength" : 19464,
            "byteOffset" : 3011028
        },
        {
            "buffer" : 0,
            "byteLength" : 17688,
            "byteOffset" : 3030492
        },
        {
            "buffer" : 0,
            "byteLength" : 17688,
            "byteOffset" : 3048180
        },
        {
            "buffer" : 0,
            "byteLength" : 11792,
            "byteOffset" : 3065868
        },
        {
            "buffer" : 0,
            "byteLength" : 15120,
            "byteOffset" : 3077660
        }
    ],
    "buffers" : [
        {
            "byteLength" : 3092780,
            "uri" : "data:application/octet-stream;base64,"
        }
    ]
}
